<?xml version="1.0" encoding="UTF-8" standalone="no"?>
<svg
   version="1.1"
   x="0px"
   y="0px"
   viewBox="0 0 50 62.5"
   style="enable-background:new 0 0 50 50;"
   xml:space="preserve"
   id="svg8"
   sodipodi:docname="noun_Tips_2021795.svg"
   inkscape:version="1.1 (c68e22c387, 2021-05-23)"
   xmlns:inkscape="http://www.inkscape.org/namespaces/inkscape"
   xmlns:sodipodi="http://sodipodi.sourceforge.net/DTD/sodipodi-0.dtd"
   xmlns="http://www.w3.org/2000/svg"
   xmlns:svg="http://www.w3.org/2000/svg"><defs
     id="defs12" /><sodipodi:namedview
     id="namedview10"
     pagecolor="#ffffff"
     bordercolor="#666666"
     borderopacity="1.0"
     inkscape:pageshadow="2"
     inkscape:pageopacity="0.0"
     inkscape:pagecheckerboard="0"
     showgrid="false"
     inkscape:zoom="12.992"
     inkscape:cx="24.976909"
     inkscape:cy="18.973214"
     inkscape:window-width="1920"
     inkscape:window-height="1001"
     inkscape:window-x="-9"
     inkscape:window-y="-9"
     inkscape:window-maximized="1"
     inkscape:current-layer="svg8" /><path
     d="M28,49v-4h6v-5v-1v-6.593c4.949-3.099,8-8.565,8-14.407c0-9.374-7.626-17-17-17S8,8.626,8,18c0,5.841,3.051,11.308,8,14.407  V39v1v5h6v4H28z M26,47h-2v-2h2V47z M10,18c0-8.271,6.729-15,15-15s15,6.729,15,15c0,5.324-2.875,10.296-7.502,12.977L32,31.266V38  h-6V20.414l5.707-5.707l-1.414-1.414L25,18.586l-5.293-5.293l-1.414,1.414L24,20.414V38h-6v-6.734l-0.499-0.289  C12.874,28.296,10,23.324,10,18z M18,40h14v3H18V40z"
     id="path2" /></svg>
