<?xml version="1.0" encoding="UTF-8" standalone="no"?>
<svg
   viewBox="0 0 64 80"
   x="0px"
   y="0px"
   version="1.1"
   id="svg12"
   sodipodi:docname="noun_event_2075560.svg"
   inkscape:version="1.1 (c68e22c387, 2021-05-23)"
   xmlns:inkscape="http://www.inkscape.org/namespaces/inkscape"
   xmlns:sodipodi="http://sodipodi.sourceforge.net/DTD/sodipodi-0.dtd"
   xmlns="http://www.w3.org/2000/svg"
   xmlns:svg="http://www.w3.org/2000/svg"
   xmlns:rdf="http://www.w3.org/1999/02/22-rdf-syntax-ns#"
   xmlns:cc="http://creativecommons.org/ns#"
   xmlns:dc="http://purl.org/dc/elements/1.1/">
  <defs
     id="defs16" />
  <sodipodi:namedview
     id="namedview14"
     pagecolor="#ffffff"
     bordercolor="#666666"
     borderopacity="1.0"
     inkscape:pageshadow="2"
     inkscape:pageopacity="0.0"
     inkscape:pagecheckerboard="0"
     showgrid="false"
     inkscape:zoom="10.15"
     inkscape:cx="31.280788"
     inkscape:cy="24.187192"
     inkscape:window-width="1920"
     inkscape:window-height="1001"
     inkscape:window-x="-9"
     inkscape:window-y="-9"
     inkscape:window-maximized="1"
     inkscape:current-layer="svg12" />
  <title
     id="title2">icn_party_event</title>
  <path
     d="M46.13,13.3H38.35V9.67a1,1,0,0,0-2,0V13.3H25.21V9.67a1,1,0,0,0-2,0V13.3H16.54a5.89,5.89,0,0,0-5.89,5.89V48.78a5.9,5.9,0,0,0,5.89,5.89H46.13A5.9,5.9,0,0,0,52,48.78V19.19A5.89,5.89,0,0,0,46.13,13.3ZM12.65,48.78V24.57H50V48.78a3.9,3.9,0,0,1-3.89,3.89H16.54A3.89,3.89,0,0,1,12.65,48.78ZM16.54,15.3h6.67v.84a2.7,2.7,0,1,0,2,0V15.3H36.35v1a2.69,2.69,0,1,0,2-.25V15.3h7.78A3.89,3.89,0,0,1,50,19.19v3.38H12.65V19.19A3.89,3.89,0,0,1,16.54,15.3Zm21.81,3.32v0a.68.68,0,0,1-.06.29.88.88,0,0,0,.06-.29Z"
     id="path4"
     style="stroke:none" />
  <path
     d="M38.44,33l-3.71-.54-1.66-3.36a2.39,2.39,0,0,0-4.27,0L27.14,32.5l-3.7.54a2.39,2.39,0,0,0-1.33,4.07l2.69,2.61-.64,3.7a2.4,2.4,0,0,0,.53,1.93,2.39,2.39,0,0,0,2.93.58l3.32-1.75,3.31,1.75a2.42,2.42,0,0,0,1.11.27,2.39,2.39,0,0,0,1.83-.85,2.36,2.36,0,0,0,.52-1.93l-.63-3.7,2.68-2.61A2.39,2.39,0,0,0,38.44,33Zm-.08,2.63-3.29,3.21a.4.4,0,0,0-.11.34l.78,4.53a.43.43,0,0,1,0,.2l0,0a.39.39,0,0,1-.08.1l0,0a.28.28,0,0,1-.12,0l-.06,0h0a.39.39,0,0,1-.18,0L31.12,42a.35.35,0,0,0-.36,0l-4.07,2.14a.39.39,0,0,1-.18,0h0l0,0a.25.25,0,0,1-.12,0l-.05,0a.25.25,0,0,1-.08-.1l0,0a.33.33,0,0,1,0-.2l.77-4.53a.4.4,0,0,0-.11-.34l-3.29-3.21a.38.38,0,0,1-.11-.18.4.4,0,0,1,.32-.47l.58-.08,4-.58a.36.36,0,0,0,.17-.07.33.33,0,0,0,.12-.14l2-4.12a.38.38,0,0,1,.35-.21.32.32,0,0,1,.19.05h0a.38.38,0,0,1,.13.15l2,4.12a.26.26,0,0,0,.11.14.36.36,0,0,0,.17.07l4.55.66a.38.38,0,0,1,.32.47A.32.32,0,0,1,38.36,35.67Z"
     id="path6" />
  <metadata
     id="metadata1011">
    <rdf:RDF>
      <cc:Work
         rdf:about="">
        <dc:title>icn_party_event</dc:title>
      </cc:Work>
    </rdf:RDF>
  </metadata>
</svg>
