<?xml version="1.0" encoding="UTF-8" standalone="no"?>
<svg
   version="1.1"
   x="0px"
   y="0px"
   viewBox="0 0 69 86.25"
   enable-background="new 0 0 69 69"
   xml:space="preserve"
   id="svg22"
   sodipodi:docname="noun_outdoor accommodation camp_2688613.svg"
   inkscape:version="1.1 (c68e22c387, 2021-05-23)"
   xmlns:inkscape="http://www.inkscape.org/namespaces/inkscape"
   xmlns:sodipodi="http://sodipodi.sourceforge.net/DTD/sodipodi-0.dtd"
   xmlns="http://www.w3.org/2000/svg"
   xmlns:svg="http://www.w3.org/2000/svg"><defs
     id="defs26" /><sodipodi:namedview
     id="namedview24"
     pagecolor="#ffffff"
     bordercolor="#666666"
     borderopacity="1.0"
     inkscape:pageshadow="2"
     inkscape:pageopacity="0.0"
     inkscape:pagecheckerboard="0"
     showgrid="false"
     inkscape:zoom="9.4144928"
     inkscape:cx="34.468134"
     inkscape:cy="26.183036"
     inkscape:window-width="1920"
     inkscape:window-height="1001"
     inkscape:window-x="-9"
     inkscape:window-y="-9"
     inkscape:window-maximized="1"
     inkscape:current-layer="svg22" /><g
     id="g16"><path
       d="M3.5,66.0752029c20.6858501,0,41.3827248,0,62,0v-2h-5.2368164L35.6495972,18.1676064l3.274231-5.5528564   l-1.7226563-1.015625l-2.6987305,4.5766602l-2.6987305-4.5766602l-1.7226563,1.015625l3.274231,5.5528564L8.7416992,64.0752029H3.5   V66.0752029z M45.0510254,64.0752029l-7.3978882-23.2968178l10.5973511,16.1327515l-2.9951172,7.1640663H45.0510254z    M28.3261719,58.3115273L34.53125,37.5556679l8.4212646,26.5195351H23.7490234l-2.9946289-7.1640663l10.8335571-16.4923096   l-5.1777954,17.3204346L28.3261719,58.3115273z M34.5024414,20.260746l23.4912109,43.8144569H47.4235229l2.8772583-6.8828163   c0.1279297-0.3066406,0.0952148-0.6572266-0.0869141-0.9345703L35.3383789,33.6118202   c-0.0031128-0.0046997-0.0090942-0.0059814-0.0122681-0.0106201c-0.1828003-0.269104-0.4864502-0.4405518-0.8236694-0.4405518   c-0.0029297,0-0.0058594,0-0.0083008,0c-0.3363647,0.0029907-0.6386719,0.1752319-0.8192139,0.4438477   c-0.0021973,0.0032349-0.0062866,0.0040894-0.0084229,0.0073242L18.7910156,56.2578163   c-0.1821289,0.2773438-0.2148438,0.6279297-0.0869141,0.9345703l2.8768311,6.8828163H11.0112305L34.5024414,20.260746z"
       id="path2" /><path
       d="M57.222168,6.7348676c-0.1494141,0-0.2983398,0.0068359-0.4462891,0.0205078   c-0.6801758-2.2456055-2.7504883-3.8305666-5.1933594-3.8305666c-2.5317383,0-4.6875,1.7480471-5.2602539,4.1621094   c-3.0455856,1.2103086-3.9995728,5.1266789-1.838623,7.6196895c-0.4852905,0.7689819-0.7512207,1.6588745-0.7512207,2.5883179   c0,2.6577148,2.1621094,4.8198242,4.8198242,4.8198242h9.090332c2.6630859,0,4.8295898-2.1621094,4.8295898-4.8198242   c0-1.1876831-0.4244995-2.2946777-1.1745605-3.1544189C63.3275414,10.9521017,61.0291328,6.7348676,57.222168,6.7348676z    M47.4365234,8.826664c0.4091797-0.0986328,0.7124023-0.4428711,0.7592773-0.8608394   c0.1943359-1.7333984,1.6503906-3.0410156,3.3867188-3.0410156c1.7817383,0,3.2495117,1.3334961,3.4140625,3.1020503   c0.0283203,0.3041992,0.1933594,0.578125,0.4487305,0.7451172c0.2543945,0.1665039,0.5732422,0.2070313,0.862793,0.1113281   c0.2958984-0.0986328,0.6035156-0.1484375,0.9140625-0.1484375c2.160759,0,3.5084953,2.3299503,2.4819336,4.1870117   c-0.7585068-0.3610888-1.7332726-0.5091009-2.5141602-0.4360352c-0.671875-2.2456055-2.7392578-3.8310547-5.1875-3.8310547   c-2.543457,0-4.7001953,1.75-5.2631836,4.1669922c-0.2978516,0.1201172-0.5839844,0.2700195-0.8535156,0.4472656   C44.6852379,11.6974468,45.4501343,9.3060036,47.4365234,8.826664z M57.6425781,20.1147499h-9.090332   c-1.5546875,0-2.8198242-1.2651367-2.8198242-2.8198242c0-1.2903366,0.8454285-2.4226046,2.1289063-2.7387695   c0.4086914-0.1005859,0.7104492-0.4462891,0.7553711-0.8642578c0.1860352-1.7314453,1.6416016-3.0371094,3.3857422-3.0371094   c1.784668,0,3.2480469,1.331543,3.4038086,3.0976563c0.0268555,0.3032227,0.1904297,0.578125,0.4443359,0.7460938   c0.2539063,0.1674805,0.5698242,0.2104492,0.8608398,0.1171875c0.9498367-0.3080034,1.9704514-0.0949364,2.6411133,0.4291992   c0.7114258,0.5332031,1.1196289,1.3535156,1.1196289,2.25C60.472168,18.8496132,59.2026367,20.1147499,57.6425781,20.1147499z"
       id="path4" /><path
       d="M11.5136719,3.8022501c-0.2807617-0.2817383-0.7001953-0.3720703-1.0698242-0.2275391   C3.7614419,6.1590114,1.9039971,14.8338404,7.0009766,19.9301796c5.1176586,5.1176586,13.7759953,3.2270527,16.3554688-3.4428711   c0.1430664-0.3701172,0.0537109-0.7900391-0.2275391-1.0698242c-0.2807617-0.2797852-0.7011719-0.3657227-1.0708008-0.2216797   c-2.8352203,1.1146889-6.2078133,0.5439186-8.5366211-1.7856445c-2.2421875-2.2421875-2.9433594-5.5932612-1.7861328-8.5371094   C11.8803711,4.5039105,11.793457,4.0835004,11.5136719,3.8022501z M12.1074219,14.8242226   c2.246645,2.2472267,5.3172417,3.2294426,8.331543,2.8383789c-2.9438992,3.9060841-8.6098185,4.2665176-12.0239258,0.8535156   c-3.4079795-3.408514-3.0440507-9.0926819,0.8530273-12.0234375C8.8745117,9.5126991,9.8867188,12.6035194,12.1074219,14.8242226z"
       id="path6" /><polygon
       points="13.2705078,51.9091835 13.2705078,50.6171913 14.5625,50.6171913 14.5625,48.6171913 13.2705078,48.6171913    13.2705078,47.3261757 11.2705078,47.3261757 11.2705078,48.6171913 9.9790039,48.6171913 9.9790039,50.6171913    11.2705078,50.6171913 11.2705078,51.9091835  "
       id="polygon8" /><polygon
       points="14.5625,32.6816444 13.2705078,32.6816444 13.2705078,31.3896523 11.2705078,31.3896523 11.2705078,32.6816444    9.9790039,32.6816444 9.9790039,34.6816444 11.2705078,34.6816444 11.2705078,35.9731483 13.2705078,35.9731483    13.2705078,34.6816444 14.5625,34.6816444  "
       id="polygon10" /><polygon
       points="50.3779297,29.6396523 50.3779297,28.3481483 51.6694336,28.3481483 51.6694336,26.3481483 50.3779297,26.3481483    50.3779297,25.0566444 48.3779297,25.0566444 48.3779297,26.3481483 47.0859375,26.3481483 47.0859375,28.3481483    48.3779297,28.3481483 48.3779297,29.6396523  "
       id="polygon12" /><polygon
       points="60.1806641,43.901371 60.1806641,42.6098671 61.472168,42.6098671 61.472168,40.6098671 60.1806641,40.6098671    60.1806641,39.3178749 58.1806641,39.3178749 58.1806641,40.6098671 56.8891602,40.6098671 56.8891602,42.6098671    58.1806641,42.6098671 58.1806641,43.901371  "
       id="polygon14" /></g></svg>
