<?xml version="1.0" encoding="UTF-8" standalone="no"?>
<svg
   data-name="Layer 1"
   viewBox="0 0 128 160"
   x="0px"
   y="0px"
   version="1.1"
   id="svg24"
   sodipodi:docname="noun_activity_2063247.svg"
   inkscape:version="1.1 (c68e22c387, 2021-05-23)"
   xmlns:inkscape="http://www.inkscape.org/namespaces/inkscape"
   xmlns:sodipodi="http://sodipodi.sourceforge.net/DTD/sodipodi-0.dtd"
   xmlns="http://www.w3.org/2000/svg"
   xmlns:svg="http://www.w3.org/2000/svg"
   xmlns:rdf="http://www.w3.org/1999/02/22-rdf-syntax-ns#"
   xmlns:cc="http://creativecommons.org/ns#"
   xmlns:dc="http://purl.org/dc/elements/1.1/">
  <defs
     id="defs28" />
  <sodipodi:namedview
     id="namedview26"
     pagecolor="#ffffff"
     bordercolor="#666666"
     borderopacity="1.0"
     inkscape:pageshadow="2"
     inkscape:pageopacity="0.0"
     inkscape:pagecheckerboard="0"
     showgrid="false"
     inkscape:zoom="5.075"
     inkscape:cx="63.940887"
     inkscape:cy="79.901478"
     inkscape:window-width="1920"
     inkscape:window-height="1001"
     inkscape:window-x="-9"
     inkscape:window-y="-9"
     inkscape:window-maximized="1"
     inkscape:current-layer="svg24" />
  <title
     id="title2">Miscellaneous 22 final</title>
  <path
     d="M128,30a30,30,0,0,0-6.85-19.08,2,2,0,1,0-3.09,2.55,25.93,25.93,0,1,1-9.38-7.18,2,2,0,1,0,1.64-3.65A30,30,0,0,0,68.27,26H59.73a30,30,0,0,0-42-23.36,2,2,0,0,0,1.64,3.65,26,26,0,1,1-9.38,7.18,2,2,0,1,0-3.09-2.55A30,30,0,0,0,27,59.85v8.3a29.68,29.68,0,0,0-9.32,2.49,2,2,0,1,0,1.64,3.65,26,26,0,1,1-9.38,7.18,2,2,0,0,0-3.09-2.55,30,30,0,1,0,52.89,23h8.52a30,30,0,1,0,52.89-23,2,2,0,1,0-3.09,2.55,25.93,25.93,0,1,1-9.38-7.18,2,2,0,1,0,1.64-3.65,29.69,29.69,0,0,0-7.44-2.24V59.6A30,30,0,0,0,128,30ZM98.89,68,98,68A30,30,0,0,0,68,97.89H60A30,30,0,0,0,31,68V60A30,30,0,0,0,60,30h8A30,30,0,0,0,98,60l.89,0Z"
     id="path4" />
  <path
     d="M44,30a2,2,0,0,0,4,0A18,18,0,1,0,30,48a2,2,0,0,0,0-4A14,14,0,1,1,44,30Z"
     id="path6" />
  <path
     d="M111,19a2,2,0,0,0,0-4h-8a2,2,0,0,0,0,4h2v3.34L94,24.59V22.72A2,2,0,0,0,93,19H91a2,2,0,0,0-1,3.72V25.8a2,2,0,0,0-.27.37L88.5,28.36A9,9,0,1,0,92,30.31l.78-1.38,12.55-2.57.38,1.74A9,9,0,1,0,110,27l-.44,0L109,24.48V19ZM86,42a5,5,0,0,1,0-10c.15,0,.29,0,.43,0l-1.67,3a2,2,0,0,0,3.49,2l1.7-3A5,5,0,0,1,91,37,5,5,0,0,1,86,42Zm23.5-4a2,2,0,0,0,2-2.43l-1-4.52a5,5,0,1,1-3.81,1.28l.91,4.11A2,2,0,0,0,109.5,38Z"
     id="path8" />
  <path
     d="M30,21.92a2,2,0,0,0-2,2v4h-4a2,2,0,0,0,0,4l6,0a2.08,2.08,0,0,0,2-2c0-.14,0-6,0-6A2,2,0,0,0,30,21.92Z"
     id="path10" />
  <path
     d="M30,95.19a6,6,0,1,0-6-6A6,6,0,0,0,30,95.19Zm0-8a2,2,0,1,1-2,2A2,2,0,0,1,30,87.19Z"
     id="path12" />
  <path
     d="M30,102.19a13,13,0,1,0-13-13A13,13,0,0,0,30,102.19Zm0-22a9,9,0,1,1-9,9A9,9,0,0,1,30,80.19Z"
     id="path14" />
  <path
     d="M13.42,96.45a2,2,0,0,0-.74,2.73A20,20,0,0,0,28,109.08v8.74a2,2,0,0,0,4,0v-8.74a20,20,0,0,0,15.31-9.89,2,2,0,1,0-3.47-2,16,16,0,0,1-27.69,0A2,2,0,0,0,13.42,96.45Z"
     id="path16" />
  <path
     d="M77,98A21,21,0,1,0,98,77,21,21,0,0,0,77,98Zm8.43-11.4L95.18,97.8l-1.59,1.39a19,19,0,0,0-12.13-5.05A17,17,0,0,1,85.43,86.6ZM81,98.1h.06a15,15,0,0,1,9.48,3.73L84,107.57A16.9,16.9,0,0,1,81,98.1Zm14.55,16.66s0,0,0,0a16.92,16.92,0,0,1-8.95-4.23l6.56-5.71A15,15,0,0,1,95.55,114.77Zm4,.15a19,19,0,0,0-3.33-12.71l1.59-1.38L107.57,112A16.89,16.89,0,0,1,99.54,114.92Zm11-5.52L100.82,98.2l1.59-1.39a19,19,0,0,0,12.13,5.05A17,17,0,0,1,110.57,109.4ZM115,97.9h-.06a15,15,0,0,1-9.48-3.73L112,88.43A16.9,16.9,0,0,1,115,97.9ZM100.45,81.23s0,0,0,0a16.92,16.92,0,0,1,8.95,4.23l-6.56,5.71A15,15,0,0,1,100.45,81.23ZM98.2,95.18,88.43,84a16.89,16.89,0,0,1,8-2.88,19,19,0,0,0,3.33,12.71Z"
     id="path18" />
  <metadata
     id="metadata1005">
    <rdf:RDF>
      <cc:Work
         rdf:about="">
        <dc:title>Miscellaneous 22 final</dc:title>
      </cc:Work>
    </rdf:RDF>
  </metadata>
</svg>
