<?xml version="1.0" encoding="UTF-8" standalone="no"?>
<svg
   data-name="Layer 3"
   viewBox="0 0 64 80"
   x="0px"
   y="0px"
   version="1.1"
   id="svg10"
   sodipodi:docname="noun_Monument_3504977.svg"
   inkscape:version="1.1 (c68e22c387, 2021-05-23)"
   xmlns:inkscape="http://www.inkscape.org/namespaces/inkscape"
   xmlns:sodipodi="http://sodipodi.sourceforge.net/DTD/sodipodi-0.dtd"
   xmlns="http://www.w3.org/2000/svg"
   xmlns:svg="http://www.w3.org/2000/svg">
  <defs
     id="defs14" />
  <sodipodi:namedview
     id="namedview12"
     pagecolor="#ffffff"
     bordercolor="#666666"
     borderopacity="1.0"
     inkscape:pageshadow="2"
     inkscape:pageopacity="0.0"
     inkscape:pagecheckerboard="0"
     showgrid="false"
     inkscape:zoom="10.15"
     inkscape:cx="31.970443"
     inkscape:cy="16.305419"
     inkscape:window-width="1920"
     inkscape:window-height="1001"
     inkscape:window-x="-9"
     inkscape:window-y="-9"
     inkscape:window-maximized="1"
     inkscape:current-layer="svg10" />
  <path
     d="M57,24V21h1a1,1,0,0,0,1-1V17h3a1,1,0,0,0,1-1V12a1,1,0,0,0-.629-.929l-25-10A.984.984,0,0,0,37,1H27a.993.993,0,0,0-.372.072l-25,10A1,1,0,0,0,1,12v4a1,1,0,0,0,1,1H5v3a1,1,0,0,0,1,1H7v3a3,3,0,0,0,2,2.816V51.183A3,3,0,0,0,7,54v3H2a1,1,0,0,0-1,1v4a1,1,0,0,0,1,1H62a1,1,0,0,0,1-1V58a1,1,0,0,0-1-1H57V54a3,3,0,0,0-2-2.816V26.815A3,3,0,0,0,57,24ZM49,51V27h4V51ZM38,57V55h7v2ZM15,27V51H11V27Zm2-.184A3,3,0,0,0,18.815,25h7.369A3,3,0,0,0,28,26.815V51.183A3,3,0,0,0,26.184,53H18.815A3,3,0,0,0,17,51.183ZM26,21v2H19V21Zm19,2H38V21h7ZM30,27h4V51H30Zm5-2H29a1,1,0,0,1-1-1V21h8v3A1,1,0,0,1,35,25ZM19,55h7v2H19Zm9-1a1,1,0,0,1,1-1h6a1,1,0,0,1,1,1v3H28Zm17.184-1H37.815A3,3,0,0,0,36,51.183V26.815A3,3,0,0,0,37.815,25h7.369A3,3,0,0,0,47,26.815V51.183A3,3,0,0,0,45.184,53ZM55,24a1,1,0,0,1-1,1H48a1,1,0,0,1-1-1V21h8ZM3,12.676,27.192,3h9.615L61,12.676V15H3ZM57,17v2H7V17ZM17,21v3a1,1,0,0,1-1,1H10a1,1,0,0,1-1-1V21ZM9,54a1,1,0,0,1,1-1h6a1,1,0,0,1,1,1v3H9Zm52,7H3V59H61Zm-6-4H47V54a1,1,0,0,1,1-1h6a1,1,0,0,1,1,1Z"
     id="path2"
     style="stroke:none" />
  <path
     d="M32,13a4,4,0,1,0-4-4A4,4,0,0,0,32,13Zm0-6a2,2,0,1,1-2,2A2,2,0,0,1,32,7Z"
     id="path4"
     style="stroke:none" />
</svg>
