<?xml version="1.0" encoding="UTF-8" standalone="no"?>
<svg
   viewBox="0 0 64 80"
   x="0px"
   y="0px"
   version="1.1"
   id="svg14"
   sodipodi:docname="noun_trekking_1638878.svg"
   inkscape:version="1.1 (c68e22c387, 2021-05-23)"
   xmlns:inkscape="http://www.inkscape.org/namespaces/inkscape"
   xmlns:sodipodi="http://sodipodi.sourceforge.net/DTD/sodipodi-0.dtd"
   xmlns="http://www.w3.org/2000/svg"
   xmlns:svg="http://www.w3.org/2000/svg"
   xmlns:rdf="http://www.w3.org/1999/02/22-rdf-syntax-ns#"
   xmlns:cc="http://creativecommons.org/ns#"
   xmlns:dc="http://purl.org/dc/elements/1.1/">
  <defs
     id="defs18" />
  <sodipodi:namedview
     id="namedview16"
     pagecolor="#ffffff"
     bordercolor="#666666"
     borderopacity="1.0"
     inkscape:pageshadow="2"
     inkscape:pageopacity="0.0"
     inkscape:pagecheckerboard="0"
     showgrid="false"
     inkscape:zoom="10.15"
     inkscape:cx="31.970443"
     inkscape:cy="8.4236453"
     inkscape:window-width="1920"
     inkscape:window-height="1001"
     inkscape:window-x="-9"
     inkscape:window-y="-9"
     inkscape:window-maximized="1"
     inkscape:current-layer="svg14" />
  <title
     id="title2">mountain-people-holidays-trekking-walking-hiking</title>
  <g
     data-name="Layer 17"
     id="g8">
    <path
       d="M31,15a6.006,6.006,0,0,0,6-6V7A6,6,0,0,0,25,7V9A6.006,6.006,0,0,0,31,15ZM27,7a4,4,0,0,1,8,0V9a4,4,0,0,1-8,0Z"
       id="path4" />
    <path
       d="M58.707,57.293l-2-2A1,1,0,0,0,56,55H54.414l-1.707-1.707A1,1,0,0,0,52,53H51V52a1,1,0,0,0-.293-.707l-2-2A1,1,0,0,0,48,49H47V42a5.006,5.006,0,0,0-5-5H39V35h4a3,3,0,0,0,0-6H39V27h8.753l9.313,24.357,1.868-.714L49.894,27H51a3,3,0,0,0,0-6H47.6l-1.666-4.357-1.868.714L45.459,21H37.918A8,8,0,0,0,31,17H19V7h3a1,1,0,0,0,1-1V2a1,1,0,0,0-1-1H18a1,1,0,0,0-1,1V5H6a1,1,0,0,0-.707,1.707L8.586,10,5.293,13.293A1,1,0,0,0,6,15H17v2H14a3,3,0,0,0-3,3v9H9a4,4,0,0,0,0,8h2v1a3,3,0,0,0,3,3h4a3,3,0,0,0,2.816-2H23V60a1,1,0,0,0,.293.707l2,2A1,1,0,0,0,26,63h8a1,1,0,0,0,1-1V60a1,1,0,0,0-.293-.707l-2-2A1,1,0,0,0,32,57H31V45h8v7a1,1,0,0,0,.293.707l1.42,1.42-1.545,2.318A1.006,1.006,0,0,0,39,57v2a1.006,1.006,0,0,0,.168.555l2,3A1,1,0,0,0,42,63H56a1,1,0,0,0,.707-.293l2-2A1,1,0,0,0,59,60V58A1,1,0,0,0,58.707,57.293ZM19,3h2V5H19ZM49,52.414V53H42.414L41,51.586V51h6.586ZM44,32a1,1,0,0,1-1,1H32a2,2,0,0,1-2-2V24a1,1,0,0,1,2,0v5a2,2,0,0,0,2,2h9A1,1,0,0,1,44,32Zm7-9a1,1,0,0,1,0,2H49.129l-.764-2Zm-4.776,0,.764,2H39a7.953,7.953,0,0,0-.263-2ZM37,25v4H34V24a3,3,0,0,0-6,0v7a4,4,0,0,0,4,4h5v2H25V25a6,6,0,0,1,12,0ZM23,25V37H21V20a2.966,2.966,0,0,0-.184-1h4.91A7.976,7.976,0,0,0,23,25ZM8.414,13l2.293-2.293a1,1,0,0,0,0-1.414L8.414,7H17v6ZM14,19h4a1,1,0,0,1,1,1V35H13V20A1,1,0,0,1,14,19ZM9,35a2,2,0,0,1,0-4h2v4Zm9,4H14a1,1,0,0,1-1-1V37h6v1A1,1,0,0,1,18,39ZM33,60.414V61H26.414L25,59.586V59h6.586ZM30,43a1,1,0,0,0-1,1V57H25V39H42a3,3,0,0,1,3,3v7H41V44a1,1,0,0,0-1-1ZM57,59.586,55.586,61H42.535L41,58.7V57.3L42.535,55h9.051l1.707,1.707A1,1,0,0,0,54,57h1.586L57,58.414Z"
       id="path6" />
  </g>
  <metadata
     id="metadata995">
    <rdf:RDF>
      <cc:Work
         rdf:about="">
        <dc:title>mountain-people-holidays-trekking-walking-hiking</dc:title>
      </cc:Work>
    </rdf:RDF>
  </metadata>
</svg>
